<?xml version="1.0" encoding="UTF-8" standalone="no"?>
<svg width="128" height="128" viewBox="0 0 128 128" xmlns="http://www.w3.org/2000/svg">
  <!-- Background -->
  <rect x="0" y="0" width="128" height="128" rx="12" fill="#0176d3" />
  
  <!-- File icons -->
  <rect x="24" y="28" width="36" height="44" rx="4" fill="#ffffff" opacity="0.9" />
  <rect x="68" y="56" width="36" height="44" rx="4" fill="#ffffff" opacity="0.9" />
  
  <!-- File extensions -->
  <text x="42" y="54" text-anchor="middle" font-family="Arial, sans-serif" font-weight="bold" font-size="14" fill="#0176d3">JS</text>
  <text x="86" y="82" text-anchor="middle" font-family="Arial, sans-serif" font-weight="bold" font-size="14" fill="#0176d3">HTML</text>
  
  <!-- Switching arrows -->
  <path d="M60 50 L68 50 L68 40 L78 52 L68 64 L68 54 L60 54 Z" fill="#ffffff" />
  <path d="M68 78 L60 78 L60 88 L50 76 L60 64 L60 74 L68 74 Z" fill="#ffffff" />
  
  <!-- Lightning bolt -->
  <path d="M64 20 L48 64 L60 64 L52 108 L80 60 L64 60 Z" fill="#fff44d" stroke="#ffffff" stroke-width="1" />
</svg> 